<svg xmlns="http://www.w3.org/2000/svg" xmlns:xlink="http://www.w3.org/1999/xlink" width="40" height="40" version="1.1" viewBox="0 0 40 40"><title>browser-firefox</title><desc>Created with Sketch.</desc><defs><radialGradient id="radialGradient-1" cx="89.417%" cy="20.517%" r="113.677%" fx="89.417%" fy="20.517%" gradientTransform="translate(0.894167,0.205175),scale(0.998036,1.000000),translate(-0.894167,-0.205175)"><stop offset="0%" stop-color="#FFF36E"/><stop offset="50%" stop-color="#FC4055"/><stop offset="100%" stop-color="#E31587"/></radialGradient><radialGradient id="radialGradient-2" cx="8.305%" cy="25.22%" r="67.277%" fx="8.305%" fy="25.22%" gradientTransform="translate(0.083045,0.252196),scale(0.998036,1.000000),translate(-0.083045,-0.252196)"><stop offset=".1%" stop-color="#C60084"/><stop offset="100%" stop-color="#FC4055" stop-opacity="0"/></radialGradient><radialGradient id="radialGradient-3" cx="99.115%" cy="14.048%" r="133.486%" fx="99.115%" fy="14.048%" gradientTransform="translate(0.991148,0.140485),scale(0.998036,1.000000),translate(-0.991148,-0.140485)"><stop offset="0%" stop-color="#FFDE67" stop-opacity=".6"/><stop offset="9.3%" stop-color="#FFD966" stop-opacity=".581"/><stop offset="20.3%" stop-color="#FFCA65" stop-opacity=".525"/><stop offset="32.1%" stop-color="#FEB262" stop-opacity=".432"/><stop offset="44.6%" stop-color="#FE8F5E" stop-opacity=".302"/><stop offset="57.3%" stop-color="#FD6459" stop-opacity=".137"/><stop offset="66.4%" stop-color="#FC4055" stop-opacity="0"/></radialGradient><radialGradient id="radialGradient-4" cx="52.866%" cy="55.604%" r="172.207%" fx="52.866%" fy="55.604%" gradientTransform="translate(0.528661,0.556035),scale(0.998036,1.000000),translate(-0.528661,-0.556035)"><stop offset="15.3%" stop-color="#810220"/><stop offset="16.7%" stop-color="#920B27" stop-opacity=".861"/><stop offset="21.6%" stop-color="#CB2740" stop-opacity=".398"/><stop offset="25.3%" stop-color="#EF394F" stop-opacity=".11"/><stop offset="27.2%" stop-color="#FC4055" stop-opacity="0"/></radialGradient><radialGradient id="radialGradient-5" cx="39.86%" cy="53.438%" r="172.207%" fx="39.86%" fy="53.438%" gradientTransform="translate(0.398598,0.534384),scale(0.998036,1.000000),translate(-0.398598,-0.534384)"><stop offset="11.3%" stop-color="#810220"/><stop offset="13.3%" stop-color="#920B27" stop-opacity=".861"/><stop offset="20.4%" stop-color="#CB2740" stop-opacity=".398"/><stop offset="25.7%" stop-color="#EF394F" stop-opacity=".11"/><stop offset="28.4%" stop-color="#FC4055" stop-opacity="0"/></radialGradient><linearGradient id="linearGradient-6" x1="40.873%" x2="81.712%" y1="37.029%" y2="83.851%"><stop offset="0%" stop-color="#FFBD4F"/><stop offset="50.8%" stop-color="#FF9640" stop-opacity="0"/></linearGradient><radialGradient id="radialGradient-7" cx="89.526%" cy="16.127%" r="119.059%" fx="89.526%" fy="16.127%" gradientTransform="translate(0.895257,0.161267),scale(1.000000,0.997605),translate(-0.895257,-0.161267)"><stop offset="0%" stop-color="#FF9640"/><stop offset="80%" stop-color="#FC4055"/></radialGradient><radialGradient id="radialGradient-8" cx="89.526%" cy="16.127%" r="119.059%" fx="89.526%" fy="16.127%" gradientTransform="translate(0.895257,0.161267),scale(1.000000,0.997605),translate(-0.895257,-0.161267)"><stop offset="8.4%" stop-color="#FFDE67"/><stop offset="14.7%" stop-color="#FFDC66" stop-opacity=".968"/><stop offset="24.6%" stop-color="#FFD562" stop-opacity=".879"/><stop offset="36.9%" stop-color="#FFCB5D" stop-opacity=".734"/><stop offset="51.1%" stop-color="#FFBC55" stop-opacity=".533"/><stop offset="66.7%" stop-color="#FFAA4B" stop-opacity=".28"/><stop offset="82.2%" stop-color="#FF9640" stop-opacity="0"/></radialGradient><radialGradient id="radialGradient-9" cx="62.256%" cy="53.147%" r="58.497%" fx="62.256%" fy="53.147%" gradientTransform="translate(0.622559,0.531468),scale(1.000000,0.997605),rotate(75.727973),translate(-0.622559,-0.531468)"><stop offset="36.3%" stop-color="#FC4055"/><stop offset="44.3%" stop-color="#FD604D" stop-opacity=".633"/><stop offset="54.5%" stop-color="#FE8644" stop-opacity=".181"/><stop offset="59%" stop-color="#FF9640" stop-opacity="0"/></radialGradient><radialGradient id="radialGradient-10" cx="52.197%" cy="57.948%" r="58.384%" fx="52.197%" fy="57.948%" gradientTransform="translate(0.521966,0.579481),scale(1.000000,0.997605),translate(-0.521966,-0.579481)"><stop offset="21.6%" stop-color="#FC4055" stop-opacity=".8"/><stop offset="26.7%" stop-color="#FD5251" stop-opacity=".633"/><stop offset="41%" stop-color="#FE8345" stop-opacity=".181"/><stop offset="47.4%" stop-color="#FF9640" stop-opacity="0"/></radialGradient><radialGradient id="radialGradient-11" cx="122.316%" cy="1.841%" r="260.079%" fx="122.316%" fy="1.841%" gradientTransform="translate(1.223159,0.018411),scale(1.000000,0.980167),translate(-1.223159,-0.018411)"><stop offset="5.4%" stop-color="#FFF36E"/><stop offset="45.7%" stop-color="#FF9640"/><stop offset="63.9%" stop-color="#FF9640"/></radialGradient><linearGradient id="linearGradient-12" x1="73.821%" x2="22.709%" y1="8.658%" y2="87.421%"><stop offset="0%" stop-color="#FFF36E" stop-opacity=".8"/><stop offset="9.4%" stop-color="#FFF36E" stop-opacity=".699"/><stop offset="75.2%" stop-color="#FFF36E" stop-opacity="0"/></linearGradient><linearGradient id="linearGradient-13" x1="40.051%" x2="79.781%" y1="6.802%" y2="112.325%"><stop offset="0%" stop-color="#B833E1"/><stop offset="37.1%" stop-color="#9059FF"/><stop offset="61.4%" stop-color="#5B6DF8"/><stop offset="100%" stop-color="#0090ED"/></linearGradient><linearGradient id="linearGradient-14" x1="16.496%" x2="90.339%" y1="8.47%" y2="76.21%"><stop offset="80.5%" stop-color="#722291" stop-opacity="0"/><stop offset="100%" stop-color="#592ACB" stop-opacity=".5"/></linearGradient></defs><g id="页面1" fill="none" fill-rule="evenodd" stroke="none" stroke-width="1"><g id="browser-firefox" fill-rule="nonzero"><path id="路径" fill="url(#radialGradient-1)" d="M35.9698277,7.84714605 C32.3656271,3.06683459 26.7852581,0.182344897 20.8010548,0.00641552392 C16.159878,-0.086527939 12.9538283,1.3081237 11.1399317,2.42944161 C13.5669553,1.02179787 17.0793188,0.223283604 20.1544482,0.262759591 C28.0646364,0.362698799 36.5604685,5.74992178 37.822201,15.4600152 C39.2713195,26.606235 31.5075421,35.9090761 20.5861855,35.9375588 C8.57099432,35.9680402 1.26293978,25.3295116 3.17327773,15.7738243 C3.20880241,15.3052828 3.27776961,14.8398795 3.37965219,14.3811714 C3.6153716,11.9321198 4.32710066,9.55267355 5.47487768,7.37643238 C4.09121935,8.0924968 2.32929112,10.3571192 1.45982002,12.4548432 C0.194143603,15.655413 -0.252097243,19.121423 0.161609712,22.5382095 C0.191591474,22.7970521 0.21857506,23.0553949 0.252554391,23.3122387 C1.67155522,31.4830425 7.98160979,37.9329436 16.1193507,39.5306827 C24.2570917,41.1284219 32.537421,37.5431521 36.9404542,30.5154287 C41.3434873,23.4877052 40.9574796,14.4727726 35.9698277,7.84714605 Z"/><path id="路径" fill="url(#radialGradient-2)" d="M35.9698277,7.84714605 C32.3656271,3.06683459 26.7852581,0.182344897 20.8010548,0.00641552392 C16.159878,-0.086527939 12.9538283,1.3081237 11.1399317,2.42944161 C13.5669553,1.02179787 17.0793188,0.223283604 20.1544482,0.262759591 C28.0646364,0.362698799 36.5604685,5.74992178 37.822201,15.4600152 C39.2713195,26.606235 31.5075421,35.9090761 20.5861855,35.9375588 C8.57099432,35.9680402 1.26293978,25.3295116 3.17327773,15.7738243 C3.20880241,15.3052828 3.27776961,14.8398795 3.37965219,14.3811714 C3.6153716,11.9321198 4.32710066,9.55267355 5.47487768,7.37643238 C4.09121935,8.0924968 2.32929112,10.3571192 1.45982002,12.4548432 C0.194143603,15.655413 -0.252097243,19.121423 0.161609712,22.5382095 C0.191591474,22.7970521 0.21857506,23.0553949 0.252554391,23.3122387 C1.67155522,31.4830425 7.98160979,37.9329436 16.1193507,39.5306827 C24.2570917,41.1284219 32.537421,37.5431521 36.9404542,30.5154287 C41.3434873,23.4877052 40.9574796,14.4727726 35.9698277,7.84714605 Z" opacity=".67"/><path id="路径" fill="url(#radialGradient-3)" d="M35.9698277,7.84714605 C32.3656271,3.06683459 26.7852581,0.182344897 20.8010548,0.00641552392 C16.159878,-0.086527939 12.9538283,1.3081237 11.1399317,2.42944161 C13.5669553,1.02179787 17.0793188,0.223283604 20.1544482,0.262759591 C28.0646364,0.362698799 36.5604685,5.74992178 37.822201,15.4600152 C39.2713195,26.606235 31.5075421,35.9090761 20.5861855,35.9375588 C8.57099432,35.9680402 1.26293978,25.3295116 3.17327773,15.7738243 C3.20880241,15.3052828 3.27776961,14.8398795 3.37965219,14.3811714 C3.6153716,11.9321198 4.32710066,9.55267355 5.47487768,7.37643238 C4.09121935,8.0924968 2.32929112,10.3571192 1.45982002,12.4548432 C0.194143603,15.655413 -0.252097243,19.121423 0.161609712,22.5382095 C0.191591474,22.7970521 0.21857506,23.0553949 0.252554391,23.3122387 C1.67155522,31.4830425 7.98160979,37.9329436 16.1193507,39.5306827 C24.2570917,41.1284219 32.537421,37.5431521 36.9404542,30.5154287 C41.3434873,23.4877052 40.9574796,14.4727726 35.9698277,7.84714605 Z"/><path id="路径" fill="url(#radialGradient-4)" d="M35.9698277,7.84714605 C32.3656271,3.06683459 26.7852581,0.182344897 20.8010548,0.00641552392 C16.159878,-0.086527939 12.9538283,1.3081237 11.1399317,2.42944161 C13.5669553,1.02179787 17.0793188,0.223283604 20.1544482,0.262759591 C28.0646364,0.362698799 36.5604685,5.74992178 37.822201,15.4600152 C39.2713195,26.606235 31.5075421,35.9090761 20.5861855,35.9375588 C8.57099432,35.9680402 1.26293978,25.3295116 3.17327773,15.7738243 C3.20880241,15.3052828 3.27776961,14.8398795 3.37965219,14.3811714 C3.6153716,11.9321198 4.32710066,9.55267355 5.47487768,7.37643238 C4.09121935,8.0924968 2.32929112,10.3571192 1.45982002,12.4548432 C0.194143603,15.655413 -0.252097243,19.121423 0.161609712,22.5382095 C0.191591474,22.7970521 0.21857506,23.0553949 0.252554391,23.3122387 C1.67155522,31.4830425 7.98160979,37.9329436 16.1193507,39.5306827 C24.2570917,41.1284219 32.537421,37.5431521 36.9404542,30.5154287 C41.3434873,23.4877052 40.9574796,14.4727726 35.9698277,7.84714605 Z"/><path id="路径" fill="url(#radialGradient-5)" d="M35.9698277,7.84714605 C32.3656271,3.06683459 26.7852581,0.182344897 20.8010548,0.00641552392 C16.159878,-0.086527939 12.9538283,1.3081237 11.1399317,2.42944161 C13.5669553,1.02179787 17.0793188,0.223283604 20.1544482,0.262759591 C28.0646364,0.362698799 36.5604685,5.74992178 37.822201,15.4600152 C39.2713195,26.606235 31.5075421,35.9090761 20.5861855,35.9375588 C8.57099432,35.9680402 1.26293978,25.3295116 3.17327773,15.7738243 C3.20880241,15.3052828 3.27776961,14.8398795 3.37965219,14.3811714 C3.6153716,11.9321198 4.32710066,9.55267355 5.47487768,7.37643238 C4.09121935,8.0924968 2.32929112,10.3571192 1.45982002,12.4548432 C0.194143603,15.655413 -0.252097243,19.121423 0.161609712,22.5382095 C0.191591474,22.7970521 0.21857506,23.0553949 0.252554391,23.3122387 C1.67155522,31.4830425 7.98160979,37.9329436 16.1193507,39.5306827 C24.2570917,41.1284219 32.537421,37.5431521 36.9404542,30.5154287 C41.3434873,23.4877052 40.9574796,14.4727726 35.9698277,7.84714605 Z"/><path id="路径" fill="url(#linearGradient-6)" d="M37.822201,15.4600152 C37.9790284,16.6603174 38.0291942,17.8721549 37.9721098,19.0813124 C38.6350398,18.9813732 39.2991359,18.8930935 39.9643979,18.8164735 C39.7538157,14.8440547 38.3629887,11.0247609 35.9698277,7.84714605 C32.3656271,3.06683459 26.7852581,0.182344897 20.8010548,0.00641552392 C16.159878,-0.086527939 12.9538283,1.3081237 11.1399317,2.42944161 C13.5669553,1.02179787 17.0793188,0.223283604 20.1544482,0.262759591 C28.0646364,0.363698191 36.5604685,5.74842269 37.822201,15.4600152 Z"/><path id="路径" fill="url(#radialGradient-7)" d="M38.3089049,14.9058523 C37.1840891,4.75802514 28.1340942,0.196799714 20.1544482,0.262759591 C17.0788191,0.287744393 13.5669553,1.02179787 11.1399317,2.42944161 C10.4977126,2.81025052 9.9009024,3.26288747 9.36101376,3.77862091 C9.42547455,3.72515343 9.61785752,3.56674979 9.93666359,3.34788293 L9.96814445,3.326396 L9.99612742,3.30740755 C11.1738786,2.51111738 12.4715207,1.9085202 13.8397893,1.5224933 C15.983251,0.930020928 18.2049383,0.669984253 20.4272822,0.751462316 C28.9736585,1.26182014 35.7333501,8.18223015 36.0427834,16.7382376 C36.2261718,23.3377232 30.8249573,28.5995225 24.5987447,28.9043371 C20.0704992,29.1262021 15.8040945,26.935035 13.720362,22.5517013 C13.2329011,21.5534037 12.9018966,20.4860656 12.738959,19.3871263 C11.7515596,12.7161842 16.2313346,7.02714485 20.3393357,5.61850172 C18.1231838,3.68267927 12.5700617,3.81409933 8.43707579,6.85474972 C5.46088619,9.04441775 3.5300607,12.3758912 2.89044977,16.3489744 C2.43028722,19.3974919 2.83542898,22.513967 4.0597385,25.3435031 C6.65293182,31.462288 12.4650185,35.6042858 19.0950926,36.0584852 C19.5911242,36.0964621 20.0881552,36.1149552 20.5861855,36.1149552 C33.8091421,36.1149552 39.5456526,26.0775566 38.3089049,14.9058523 L38.3089049,14.9058523 Z"/><path id="路径" fill="url(#radialGradient-8)" d="M38.3089049,14.9058523 C37.1840891,4.75802514 28.1340942,0.196799714 20.1544482,0.262759591 C17.0788191,0.287744393 13.5669553,1.02179787 11.1399317,2.42944161 C10.4977126,2.81025052 9.9009024,3.26288747 9.36101376,3.77862091 C9.42547455,3.72515343 9.61785752,3.56674979 9.93666359,3.34788293 L9.96814445,3.326396 L9.99612742,3.30740755 C11.1738786,2.51111738 12.4715207,1.9085202 13.8397893,1.5224933 C15.983251,0.930020928 18.2049383,0.669984253 20.4272822,0.751462316 C28.9736585,1.26182014 35.7333501,8.18223015 36.0427834,16.7382376 C36.2261718,23.3377232 30.8249573,28.5995225 24.5987447,28.9043371 C20.0704992,29.1262021 15.8040945,26.935035 13.720362,22.5517013 C13.2329011,21.5534037 12.9018966,20.4860656 12.738959,19.3871263 C11.7515596,12.7161842 16.2313346,7.02714485 20.3393357,5.61850172 C18.1231838,3.68267927 12.5700617,3.81409933 8.43707579,6.85474972 C5.46088619,9.04441775 3.5300607,12.3758912 2.89044977,16.3489744 C2.43028722,19.3974919 2.83542898,22.513967 4.0597385,25.3435031 C6.65293182,31.462288 12.4650185,35.6042858 19.0950926,36.0584852 C19.5911242,36.0964621 20.0881552,36.1149552 20.5861855,36.1149552 C33.8091421,36.1149552 39.5456526,26.0775566 38.3089049,14.9058523 L38.3089049,14.9058523 Z"/><path id="路径" fill="url(#radialGradient-9)" d="M38.3089049,14.9058523 C37.1840891,4.75802514 28.1340942,0.196799714 20.1544482,0.262759591 C17.0788191,0.287744393 13.5669553,1.02179787 11.1399317,2.42944161 C10.4977126,2.81025052 9.9009024,3.26288747 9.36101376,3.77862091 C9.42547455,3.72515343 9.61785752,3.56674979 9.93666359,3.34788293 L9.96814445,3.326396 L9.99612742,3.30740755 C11.1738786,2.51111738 12.4715207,1.9085202 13.8397893,1.5224933 C15.983251,0.930020928 18.2049383,0.669984253 20.4272822,0.751462316 C28.9736585,1.26182014 35.7333501,8.18223015 36.0427834,16.7382376 C36.2261718,23.3377232 30.8249573,28.5995225 24.5987447,28.9043371 C20.0704992,29.1262021 15.8040945,26.935035 13.720362,22.5517013 C13.2329011,21.5534037 12.9018966,20.4860656 12.738959,19.3871263 C11.7515596,12.7161842 16.2313346,7.02714485 20.3393357,5.61850172 C18.1231838,3.68267927 12.5700617,3.81409933 8.43707579,6.85474972 C5.46088619,9.04441775 3.5300607,12.3758912 2.89044977,16.3489744 C2.43028722,19.3974919 2.83542898,22.513967 4.0597385,25.3435031 C6.65293182,31.462288 12.4650185,35.6042858 19.0950926,36.0584852 C19.5911242,36.0964621 20.0881552,36.1149552 20.5861855,36.1149552 C33.8091421,36.1149552 39.5456526,26.0775566 38.3089049,14.9058523 L38.3089049,14.9058523 Z" opacity=".53"/><path id="路径" fill="url(#radialGradient-10)" d="M38.3089049,14.9058523 C37.1840891,4.75802514 28.1340942,0.196799714 20.1544482,0.262759591 C17.0788191,0.287744393 13.5669553,1.02179787 11.1399317,2.42944161 C10.4977126,2.81025052 9.9009024,3.26288747 9.36101376,3.77862091 C9.42547455,3.72515343 9.61785752,3.56674979 9.93666359,3.34788293 L9.96814445,3.326396 L9.99612742,3.30740755 C11.1738786,2.51111738 12.4715207,1.9085202 13.8397893,1.5224933 C15.983251,0.930020928 18.2049383,0.669984253 20.4272822,0.751462316 C28.9736585,1.26182014 35.7333501,8.18223015 36.0427834,16.7382376 C36.2261718,23.3377232 30.8249573,28.5995225 24.5987447,28.9043371 C20.0704992,29.1262021 15.8040945,26.935035 13.720362,22.5517013 C13.2329011,21.5534037 12.9018966,20.4860656 12.738959,19.3871263 C11.7515596,12.7161842 16.2313346,7.02714485 20.3393357,5.61850172 C18.1231838,3.68267927 12.5700617,3.81409933 8.43707579,6.85474972 C5.46088619,9.04441775 3.5300607,12.3758912 2.89044977,16.3489744 C2.43028722,19.3974919 2.83542898,22.513967 4.0597385,25.3435031 C6.65293182,31.462288 12.4650185,35.6042858 19.0950926,36.0584852 C19.5911242,36.0964621 20.0881552,36.1149552 20.5861855,36.1149552 C33.8091421,36.1149552 39.5456526,26.0775566 38.3089049,14.9058523 L38.3089049,14.9058523 Z" opacity=".53"/><path id="路径" fill="url(#radialGradient-11)" d="M24.5987447,28.9043371 C33.143547,28.3846532 36.801322,21.3089573 37.0306824,16.2895106 C37.3884648,8.44678129 32.735795,-0.00807566117 20.4272822,0.751462316 C18.2048612,0.670471959 15.9831725,0.931014376 13.8397893,1.52399239 C12.4776491,1.92640351 11.1824421,2.52786991 9.99612742,3.30890663 L9.96814445,3.32789508 L9.93666359,3.34938201 C9.74544658,3.48263429 9.55839369,3.62288231 9.37550494,3.77012608 C12.5614442,1.98862454 16.2425877,1.29791657 19.8576287,1.80332247 C26.9243301,2.73075832 33.3853998,8.22791443 33.3853998,15.4815021 C33.3853998,21.0626071 29.0725233,25.325514 24.0220955,25.0192004 C16.5191595,24.5694739 14.62781,16.874155 18.5309357,13.5491775 C17.4785759,13.3228152 15.500779,13.7665453 14.1236167,15.825293 C12.8878684,17.6741683 12.9578258,20.5274327 13.720362,22.5517013 C15.6667084,26.7307916 20.0025993,29.2628165 24.5987447,28.9043371 Z"/><path id="路径" fill="url(#linearGradient-12)" d="M35.9698277,7.84714605 C35.4344337,7.14617961 34.8531799,6.48146027 34.2298861,5.85735643 C33.7349589,5.33406068 33.2045216,4.8455308 32.6423518,4.39524582 C32.9658553,4.67693262 33.2742637,4.97549999 33.5662898,5.28970173 C34.6601108,6.45691236 35.4918571,7.84440558 36.0058059,9.35922626 C37.0496709,12.5218025 36.9817122,16.4798948 34.9884247,19.5885038 C32.7359232,23.1337477 28.7638694,25.2088149 24.5672639,25.0326922 C24.3868736,25.0326922 24.2049842,25.0326922 24.0220955,25.0192004 C16.5191595,24.5694739 14.62781,16.874155 18.5314354,13.5491775 C17.4785759,13.3228152 15.500779,13.7665453 14.1236167,15.825293 C12.8878684,17.6741683 12.9578258,20.5274327 13.720362,22.5517013 C13.2330665,21.5533782 12.9022304,20.48604 12.7394587,19.3871263 C11.7515596,12.7161842 16.2313346,7.02714485 20.3393357,5.61850172 C18.1231838,3.68267927 12.5700617,3.81409933 8.43707579,6.85474972 C6.00624538,8.67181808 4.23617493,11.2338314 3.39664186,14.1503119 C3.66420148,11.7836701 4.36889141,9.48728577 5.47487768,7.37793147 C4.09121935,8.09399589 2.32929112,10.3586183 1.45982002,12.4563423 C0.194393076,15.6564523 -0.251843695,19.1219154 0.161609712,22.5382095 C0.191591474,22.7970521 0.21857506,23.0553949 0.252554391,23.3122387 C1.67155522,31.4830425 7.98160979,37.9329436 16.1193507,39.5306827 C24.2570917,41.1284219 32.537421,37.5431521 36.9404542,30.5154287 C41.3434873,23.4877052 40.9574796,14.4727726 35.9698277,7.84714605 L35.9698277,7.84714605 Z"/><path id="路径" fill="url(#linearGradient-13)" d="M36.0058059,9.35922626 C35.4919695,7.84435353 34.6602097,6.45683772 33.5662898,5.28970173 C32.2663699,3.93515238 30.7252925,2.83484279 29.022054,2.04517536 C27.6000913,1.34425453 26.1007262,0.8127682 24.5547715,0.461638614 C21.8296035,-0.134881504 19.0094779,-0.151906108 16.2773066,0.41166901 C13.437534,1.01130426 10.9405529,2.24005681 9.36101376,3.77612243 C10.6204781,3.06459728 11.9704036,2.52671138 13.3740726,2.17709511 C18.9168902,0.784227556 24.787475,2.30964175 28.9510972,6.22463301 C29.7815274,7.01214528 30.5084214,7.90208252 31.1142814,8.87302201 C33.5602935,12.8501028 33.3289342,17.8500613 31.4215944,20.7987676 C30.0049562,22.9894351 26.9708018,25.046184 24.1400238,25.0221985 C28.4810754,25.3498505 32.6502426,23.2621943 34.9884247,19.5900029 C36.9817122,16.4798948 37.0496709,12.5218025 36.0058059,9.35922626 Z"/><path id="路径" fill="url(#linearGradient-14)" d="M36.0058059,9.35922626 C35.4919695,7.84435353 34.6602097,6.45683772 33.5662898,5.28970173 C32.2663699,3.93515238 30.7252925,2.83484279 29.022054,2.04517536 C27.6000913,1.34425453 26.1007262,0.8127682 24.5547715,0.461638614 C21.8296035,-0.134881504 19.0094779,-0.151906108 16.2773066,0.41166901 C13.437534,1.01130426 10.9405529,2.24005681 9.36101376,3.77612243 C10.6204781,3.06459728 11.9704036,2.52671138 13.3740726,2.17709511 C18.9168902,0.784227556 24.787475,2.30964175 28.9510972,6.22463301 C29.7815274,7.01214528 30.5084214,7.90208252 31.1142814,8.87302201 C33.5602935,12.8501028 33.3289342,17.8500613 31.4215944,20.7987676 C30.0049562,22.9894351 26.9708018,25.046184 24.1400238,25.0221985 C28.4810754,25.3498505 32.6502426,23.2621943 34.9884247,19.5900029 C36.9817122,16.4798948 37.0496709,12.5218025 36.0058059,9.35922626 Z"/></g></g></svg>